<mxfile host="app.diagrams.net" modified="2023-05-11T16:49:34.421Z" agent="Mozilla/5.0 (Windows NT 10.0; Win64; x64) AppleWebKit/537.36 (KHTML, like Gecko) Chrome/113.0.0.0 Safari/537.36" etag="blSXNUJykdSviyzToMOo" version="21.2.9" type="device">
  <diagram name="Page-1" id="2YBvvXClWsGukQMizWep">
    <mxGraphModel dx="1937" dy="1089" grid="1" gridSize="10" guides="1" tooltips="1" connect="1" arrows="1" fold="1" page="1" pageScale="1" pageWidth="850" pageHeight="1100" math="0" shadow="0">
      <root>
        <mxCell id="0" />
        <mxCell id="1" parent="0" />
        <mxCell id="aM9ryv3xv72pqoxQDRHE-1" value="ProfilPage" style="shape=umlLifeline;perimeter=lifelinePerimeter;whiteSpace=wrap;html=1;container=0;dropTarget=0;collapsible=0;recursiveResize=0;outlineConnect=0;portConstraint=eastwest;newEdgeStyle={&quot;edgeStyle&quot;:&quot;elbowEdgeStyle&quot;,&quot;elbow&quot;:&quot;vertical&quot;,&quot;curved&quot;:0,&quot;rounded&quot;:0};" parent="1" vertex="1">
          <mxGeometry x="225" y="70" width="100" height="720" as="geometry" />
        </mxCell>
        <mxCell id="aM9ryv3xv72pqoxQDRHE-2" value="" style="html=1;points=[];perimeter=orthogonalPerimeter;outlineConnect=0;targetShapes=umlLifeline;portConstraint=eastwest;newEdgeStyle={&quot;edgeStyle&quot;:&quot;elbowEdgeStyle&quot;,&quot;elbow&quot;:&quot;vertical&quot;,&quot;curved&quot;:0,&quot;rounded&quot;:0};" parent="aM9ryv3xv72pqoxQDRHE-1" vertex="1">
          <mxGeometry x="45" y="70" width="10" height="450" as="geometry" />
        </mxCell>
        <mxCell id="aM9ryv3xv72pqoxQDRHE-5" value=":Database" style="shape=umlLifeline;perimeter=lifelinePerimeter;whiteSpace=wrap;html=1;container=0;dropTarget=0;collapsible=0;recursiveResize=0;outlineConnect=0;portConstraint=eastwest;newEdgeStyle={&quot;edgeStyle&quot;:&quot;elbowEdgeStyle&quot;,&quot;elbow&quot;:&quot;vertical&quot;,&quot;curved&quot;:0,&quot;rounded&quot;:0};" parent="1" vertex="1">
          <mxGeometry x="405" y="70" width="100" height="1030" as="geometry" />
        </mxCell>
        <mxCell id="aM9ryv3xv72pqoxQDRHE-6" value="" style="html=1;points=[];perimeter=orthogonalPerimeter;outlineConnect=0;targetShapes=umlLifeline;portConstraint=eastwest;newEdgeStyle={&quot;edgeStyle&quot;:&quot;elbowEdgeStyle&quot;,&quot;elbow&quot;:&quot;vertical&quot;,&quot;curved&quot;:0,&quot;rounded&quot;:0};" parent="aM9ryv3xv72pqoxQDRHE-5" vertex="1">
          <mxGeometry x="45" y="80" width="10" height="380" as="geometry" />
        </mxCell>
        <mxCell id="aM9ryv3xv72pqoxQDRHE-7" value="getInformation(userid)" style="html=1;verticalAlign=bottom;endArrow=block;edgeStyle=elbowEdgeStyle;elbow=vertical;curved=0;rounded=0;" parent="1" source="aM9ryv3xv72pqoxQDRHE-2" target="aM9ryv3xv72pqoxQDRHE-6" edge="1">
          <mxGeometry relative="1" as="geometry">
            <mxPoint x="380" y="160" as="sourcePoint" />
            <Array as="points">
              <mxPoint x="365" y="150" />
            </Array>
          </mxGeometry>
        </mxCell>
        <mxCell id="aS7JHVyA482OQ9VyYVJ9-1" value=":ContentDetailPage" style="shape=umlLifeline;perimeter=lifelinePerimeter;whiteSpace=wrap;html=1;container=0;dropTarget=0;collapsible=0;recursiveResize=0;outlineConnect=0;portConstraint=eastwest;newEdgeStyle={&quot;edgeStyle&quot;:&quot;elbowEdgeStyle&quot;,&quot;elbow&quot;:&quot;vertical&quot;,&quot;curved&quot;:0,&quot;rounded&quot;:0};" vertex="1" parent="1">
          <mxGeometry x="580" y="70" width="100" height="1030" as="geometry" />
        </mxCell>
        <mxCell id="aS7JHVyA482OQ9VyYVJ9-2" value="" style="html=1;points=[];perimeter=orthogonalPerimeter;outlineConnect=0;targetShapes=umlLifeline;portConstraint=eastwest;newEdgeStyle={&quot;edgeStyle&quot;:&quot;elbowEdgeStyle&quot;,&quot;elbow&quot;:&quot;vertical&quot;,&quot;curved&quot;:0,&quot;rounded&quot;:0};" vertex="1" parent="aS7JHVyA482OQ9VyYVJ9-1">
          <mxGeometry x="45" y="510" width="10" height="20" as="geometry" />
        </mxCell>
        <mxCell id="aS7JHVyA482OQ9VyYVJ9-84" value="" style="html=1;points=[];perimeter=orthogonalPerimeter;outlineConnect=0;targetShapes=umlLifeline;portConstraint=eastwest;newEdgeStyle={&quot;edgeStyle&quot;:&quot;elbowEdgeStyle&quot;,&quot;elbow&quot;:&quot;vertical&quot;,&quot;curved&quot;:0,&quot;rounded&quot;:0};" vertex="1" parent="aS7JHVyA482OQ9VyYVJ9-1">
          <mxGeometry x="45" y="950" width="10" height="20" as="geometry" />
        </mxCell>
        <mxCell id="aS7JHVyA482OQ9VyYVJ9-3" value="Admin" style="shape=umlActor;verticalLabelPosition=bottom;verticalAlign=top;html=1;outlineConnect=0;" vertex="1" parent="1">
          <mxGeometry x="130" y="40" width="30" height="60" as="geometry" />
        </mxCell>
        <mxCell id="aS7JHVyA482OQ9VyYVJ9-4" value="User" style="shape=umlActor;verticalLabelPosition=bottom;verticalAlign=top;html=1;outlineConnect=0;" vertex="1" parent="1">
          <mxGeometry x="40" y="40" width="30" height="60" as="geometry" />
        </mxCell>
        <mxCell id="aS7JHVyA482OQ9VyYVJ9-11" value="" style="endArrow=none;dashed=1;html=1;rounded=0;" edge="1" parent="1" source="aS7JHVyA482OQ9VyYVJ9-14" target="aS7JHVyA482OQ9VyYVJ9-3">
          <mxGeometry width="50" height="50" relative="1" as="geometry">
            <mxPoint x="145" y="800" as="sourcePoint" />
            <mxPoint x="170" y="440" as="targetPoint" />
          </mxGeometry>
        </mxCell>
        <mxCell id="aS7JHVyA482OQ9VyYVJ9-12" value="" style="endArrow=none;dashed=1;html=1;rounded=0;" edge="1" parent="1" source="aS7JHVyA482OQ9VyYVJ9-56" target="aS7JHVyA482OQ9VyYVJ9-4">
          <mxGeometry width="50" height="50" relative="1" as="geometry">
            <mxPoint x="55" y="800" as="sourcePoint" />
            <mxPoint x="120" y="320" as="targetPoint" />
          </mxGeometry>
        </mxCell>
        <mxCell id="aS7JHVyA482OQ9VyYVJ9-15" value="" style="endArrow=none;dashed=1;html=1;rounded=0;" edge="1" parent="1" target="aS7JHVyA482OQ9VyYVJ9-14">
          <mxGeometry width="50" height="50" relative="1" as="geometry">
            <mxPoint x="145" y="610" as="sourcePoint" />
            <mxPoint x="145" y="100" as="targetPoint" />
          </mxGeometry>
        </mxCell>
        <mxCell id="aS7JHVyA482OQ9VyYVJ9-14" value="" style="html=1;points=[];perimeter=orthogonalPerimeter;outlineConnect=0;targetShapes=umlLifeline;portConstraint=eastwest;newEdgeStyle={&quot;edgeStyle&quot;:&quot;elbowEdgeStyle&quot;,&quot;elbow&quot;:&quot;vertical&quot;,&quot;curved&quot;:0,&quot;rounded&quot;:0};" vertex="1" parent="1">
          <mxGeometry x="140" y="130" width="10" height="470" as="geometry" />
        </mxCell>
        <mxCell id="aS7JHVyA482OQ9VyYVJ9-19" value="Tabs and Informations" style="html=1;verticalAlign=bottom;endArrow=open;dashed=1;endSize=8;edgeStyle=elbowEdgeStyle;elbow=vertical;curved=0;rounded=0;" edge="1" parent="1">
          <mxGeometry relative="1" as="geometry">
            <mxPoint x="150" y="180" as="targetPoint" />
            <Array as="points">
              <mxPoint x="195" y="180" />
            </Array>
            <mxPoint x="270" y="180" as="sourcePoint" />
          </mxGeometry>
        </mxCell>
        <mxCell id="aS7JHVyA482OQ9VyYVJ9-20" value="Information" style="html=1;verticalAlign=bottom;endArrow=open;dashed=1;endSize=8;edgeStyle=elbowEdgeStyle;elbow=vertical;curved=0;rounded=0;" edge="1" parent="1">
          <mxGeometry relative="1" as="geometry">
            <mxPoint x="280" y="170" as="targetPoint" />
            <Array as="points">
              <mxPoint x="375" y="170" />
            </Array>
            <mxPoint x="450" y="170" as="sourcePoint" />
          </mxGeometry>
        </mxCell>
        <mxCell id="aS7JHVyA482OQ9VyYVJ9-25" value="opt" style="shape=umlFrame;whiteSpace=wrap;html=1;pointerEvents=0;width=30;height=20;" vertex="1" parent="1">
          <mxGeometry x="100" y="250" width="370" height="50" as="geometry" />
        </mxCell>
        <mxCell id="aS7JHVyA482OQ9VyYVJ9-26" value="blockUser" style="html=1;verticalAlign=bottom;endArrow=block;edgeStyle=elbowEdgeStyle;elbow=vertical;curved=0;rounded=0;" edge="1" parent="1">
          <mxGeometry width="80" relative="1" as="geometry">
            <mxPoint x="150" y="270" as="sourcePoint" />
            <mxPoint x="270" y="270" as="targetPoint" />
            <Array as="points">
              <mxPoint x="240" y="270" />
            </Array>
          </mxGeometry>
        </mxCell>
        <mxCell id="aS7JHVyA482OQ9VyYVJ9-27" value="message" style="html=1;verticalAlign=bottom;endArrow=open;dashed=1;endSize=8;edgeStyle=elbowEdgeStyle;elbow=vertical;curved=0;rounded=0;" edge="1" parent="1">
          <mxGeometry relative="1" as="geometry">
            <mxPoint x="150" y="290" as="targetPoint" />
            <Array as="points">
              <mxPoint x="185" y="290" />
            </Array>
            <mxPoint x="270" y="290" as="sourcePoint" />
          </mxGeometry>
        </mxCell>
        <mxCell id="aS7JHVyA482OQ9VyYVJ9-28" value="setUser(userid)" style="html=1;verticalAlign=bottom;endArrow=block;edgeStyle=elbowEdgeStyle;elbow=vertical;curved=0;rounded=0;" edge="1" parent="1">
          <mxGeometry width="80" relative="1" as="geometry">
            <mxPoint x="280" y="280" as="sourcePoint" />
            <mxPoint x="450" y="280" as="targetPoint" />
          </mxGeometry>
        </mxCell>
        <mxCell id="aS7JHVyA482OQ9VyYVJ9-29" value="Arrive(userid)" style="html=1;verticalAlign=bottom;endArrow=block;edgeStyle=elbowEdgeStyle;elbow=vertical;curved=0;rounded=0;" edge="1" parent="1" source="aS7JHVyA482OQ9VyYVJ9-14">
          <mxGeometry x="-0.0006" width="80" relative="1" as="geometry">
            <mxPoint x="190" y="140" as="sourcePoint" />
            <mxPoint x="270" y="140" as="targetPoint" />
            <mxPoint as="offset" />
          </mxGeometry>
        </mxCell>
        <mxCell id="aS7JHVyA482OQ9VyYVJ9-30" value="opt" style="shape=umlFrame;whiteSpace=wrap;html=1;pointerEvents=0;width=30;height=20;" vertex="1" parent="1">
          <mxGeometry x="100" y="310" width="370" height="50" as="geometry" />
        </mxCell>
        <mxCell id="aS7JHVyA482OQ9VyYVJ9-31" value="chooseAuthorization" style="html=1;verticalAlign=bottom;endArrow=block;edgeStyle=elbowEdgeStyle;elbow=vertical;curved=0;rounded=0;" edge="1" parent="1">
          <mxGeometry width="80" relative="1" as="geometry">
            <mxPoint x="150" y="330.21" as="sourcePoint" />
            <mxPoint x="270" y="330" as="targetPoint" />
          </mxGeometry>
        </mxCell>
        <mxCell id="aS7JHVyA482OQ9VyYVJ9-32" value="setUser(userid)" style="html=1;verticalAlign=bottom;endArrow=block;edgeStyle=elbowEdgeStyle;elbow=vertical;curved=0;rounded=0;" edge="1" parent="1">
          <mxGeometry width="80" relative="1" as="geometry">
            <mxPoint x="280" y="339.58" as="sourcePoint" />
            <mxPoint x="450" y="339.58" as="targetPoint" />
          </mxGeometry>
        </mxCell>
        <mxCell id="aS7JHVyA482OQ9VyYVJ9-33" value="message" style="html=1;verticalAlign=bottom;endArrow=open;dashed=1;endSize=8;edgeStyle=elbowEdgeStyle;elbow=vertical;curved=0;rounded=0;" edge="1" parent="1">
          <mxGeometry relative="1" as="geometry">
            <mxPoint x="150" y="350" as="targetPoint" />
            <Array as="points">
              <mxPoint x="185" y="350" />
            </Array>
            <mxPoint x="270" y="350" as="sourcePoint" />
          </mxGeometry>
        </mxCell>
        <mxCell id="aS7JHVyA482OQ9VyYVJ9-34" value="opt" style="shape=umlFrame;whiteSpace=wrap;html=1;pointerEvents=0;width=30;height=15;" vertex="1" parent="1">
          <mxGeometry x="110" y="190" width="130" height="40" as="geometry" />
        </mxCell>
        <mxCell id="aS7JHVyA482OQ9VyYVJ9-38" value="chooseTab" style="html=1;align=left;spacingLeft=2;endArrow=block;rounded=0;edgeStyle=orthogonalEdgeStyle;curved=0;rounded=0;" edge="1" target="aS7JHVyA482OQ9VyYVJ9-14" parent="1">
          <mxGeometry x="0.1111" relative="1" as="geometry">
            <mxPoint x="150" y="190" as="sourcePoint" />
            <Array as="points">
              <mxPoint x="150" y="200" />
              <mxPoint x="180" y="200" />
              <mxPoint x="180" y="220" />
            </Array>
            <mxPoint x="155" y="220" as="targetPoint" />
            <mxPoint as="offset" />
          </mxGeometry>
        </mxCell>
        <mxCell id="aS7JHVyA482OQ9VyYVJ9-40" value="alt" style="shape=umlFrame;whiteSpace=wrap;html=1;pointerEvents=0;width=30;height=15;" vertex="1" parent="1">
          <mxGeometry x="100" y="400" width="370" height="50" as="geometry" />
        </mxCell>
        <mxCell id="aS7JHVyA482OQ9VyYVJ9-41" value="getContents" style="html=1;verticalAlign=bottom;endArrow=block;edgeStyle=elbowEdgeStyle;elbow=vertical;curved=0;rounded=0;" edge="1" parent="1" target="aM9ryv3xv72pqoxQDRHE-2">
          <mxGeometry width="80" relative="1" as="geometry">
            <mxPoint x="150" y="390" as="sourcePoint" />
            <mxPoint x="230" y="390" as="targetPoint" />
          </mxGeometry>
        </mxCell>
        <mxCell id="aS7JHVyA482OQ9VyYVJ9-42" value="getContentsbyWriten" style="html=1;verticalAlign=bottom;endArrow=block;edgeStyle=elbowEdgeStyle;elbow=vertical;curved=0;rounded=0;" edge="1" parent="1">
          <mxGeometry width="80" relative="1" as="geometry">
            <mxPoint x="280" y="420" as="sourcePoint" />
            <mxPoint x="450" y="420" as="targetPoint" />
          </mxGeometry>
        </mxCell>
        <mxCell id="aS7JHVyA482OQ9VyYVJ9-44" value="getContentsbyCommented" style="html=1;verticalAlign=bottom;endArrow=block;edgeStyle=elbowEdgeStyle;elbow=vertical;curved=0;rounded=0;" edge="1" parent="1">
          <mxGeometry width="80" relative="1" as="geometry">
            <mxPoint x="280" y="470.00000000000006" as="sourcePoint" />
            <mxPoint x="450" y="470.00000000000006" as="targetPoint" />
          </mxGeometry>
        </mxCell>
        <mxCell id="aS7JHVyA482OQ9VyYVJ9-45" value="getContentsbyLeftImpression" style="html=1;verticalAlign=bottom;endArrow=block;edgeStyle=elbowEdgeStyle;elbow=vertical;curved=0;rounded=0;" edge="1" parent="1">
          <mxGeometry width="80" relative="1" as="geometry">
            <mxPoint x="280" y="510.35" as="sourcePoint" />
            <mxPoint x="450" y="510.35" as="targetPoint" />
          </mxGeometry>
        </mxCell>
        <mxCell id="aS7JHVyA482OQ9VyYVJ9-46" value="ContentList" style="html=1;verticalAlign=bottom;endArrow=open;dashed=1;endSize=8;edgeStyle=elbowEdgeStyle;elbow=vertical;curved=0;rounded=0;" edge="1" parent="1" source="aM9ryv3xv72pqoxQDRHE-6">
          <mxGeometry relative="1" as="geometry">
            <mxPoint x="400" y="440" as="sourcePoint" />
            <mxPoint x="280" y="440" as="targetPoint" />
          </mxGeometry>
        </mxCell>
        <mxCell id="aS7JHVyA482OQ9VyYVJ9-47" value="ContentList" style="html=1;verticalAlign=bottom;endArrow=open;dashed=1;endSize=8;edgeStyle=elbowEdgeStyle;elbow=vertical;curved=0;rounded=0;" edge="1" parent="1">
          <mxGeometry relative="1" as="geometry">
            <mxPoint x="450" y="490.28000000000003" as="sourcePoint" />
            <mxPoint x="280" y="490.28000000000003" as="targetPoint" />
          </mxGeometry>
        </mxCell>
        <mxCell id="aS7JHVyA482OQ9VyYVJ9-48" value="ContentList" style="html=1;verticalAlign=bottom;endArrow=open;dashed=1;endSize=8;edgeStyle=elbowEdgeStyle;elbow=vertical;curved=0;rounded=0;" edge="1" parent="1">
          <mxGeometry relative="1" as="geometry">
            <mxPoint x="450" y="530" as="sourcePoint" />
            <mxPoint x="280" y="530" as="targetPoint" />
          </mxGeometry>
        </mxCell>
        <mxCell id="aS7JHVyA482OQ9VyYVJ9-49" value="userType==editor" style="text;html=1;strokeColor=none;fillColor=none;align=center;verticalAlign=middle;whiteSpace=wrap;rounded=0;" vertex="1" parent="1">
          <mxGeometry x="165" y="400" width="60" height="30" as="geometry" />
        </mxCell>
        <mxCell id="aS7JHVyA482OQ9VyYVJ9-50" value="ContentList" style="html=1;verticalAlign=bottom;endArrow=open;dashed=1;endSize=8;edgeStyle=elbowEdgeStyle;elbow=vertical;curved=0;rounded=0;" edge="1" parent="1">
          <mxGeometry relative="1" as="geometry">
            <mxPoint x="270" y="540" as="sourcePoint" />
            <mxPoint x="150" y="540" as="targetPoint" />
          </mxGeometry>
        </mxCell>
        <mxCell id="aS7JHVyA482OQ9VyYVJ9-51" value="chooseContent(contentId)" style="html=1;verticalAlign=bottom;endArrow=block;edgeStyle=elbowEdgeStyle;elbow=vertical;curved=0;rounded=0;" edge="1" parent="1" target="aM9ryv3xv72pqoxQDRHE-2">
          <mxGeometry width="80" relative="1" as="geometry">
            <mxPoint x="150" y="570" as="sourcePoint" />
            <mxPoint x="250" y="570" as="targetPoint" />
          </mxGeometry>
        </mxCell>
        <mxCell id="aS7JHVyA482OQ9VyYVJ9-52" value="chooseContent(contentId)" style="html=1;verticalAlign=bottom;endArrow=block;edgeStyle=elbowEdgeStyle;elbow=vertical;curved=0;rounded=0;exitX=1.036;exitY=0.978;exitDx=0;exitDy=0;exitPerimeter=0;" edge="1" parent="1" source="aM9ryv3xv72pqoxQDRHE-2" target="aS7JHVyA482OQ9VyYVJ9-2">
          <mxGeometry width="80" relative="1" as="geometry">
            <mxPoint x="300" y="580" as="sourcePoint" />
            <mxPoint x="610" y="580" as="targetPoint" />
          </mxGeometry>
        </mxCell>
        <mxCell id="aS7JHVyA482OQ9VyYVJ9-53" value="" style="html=1;points=[];perimeter=orthogonalPerimeter;outlineConnect=0;targetShapes=umlLifeline;portConstraint=eastwest;newEdgeStyle={&quot;edgeStyle&quot;:&quot;elbowEdgeStyle&quot;,&quot;elbow&quot;:&quot;vertical&quot;,&quot;curved&quot;:0,&quot;rounded&quot;:0};" vertex="1" parent="1">
          <mxGeometry x="270" y="640" width="10" height="400" as="geometry" />
        </mxCell>
        <mxCell id="aS7JHVyA482OQ9VyYVJ9-54" value="" style="html=1;points=[];perimeter=orthogonalPerimeter;outlineConnect=0;targetShapes=umlLifeline;portConstraint=eastwest;newEdgeStyle={&quot;edgeStyle&quot;:&quot;elbowEdgeStyle&quot;,&quot;elbow&quot;:&quot;vertical&quot;,&quot;curved&quot;:0,&quot;rounded&quot;:0};" vertex="1" parent="1">
          <mxGeometry x="450" y="650" width="10" height="330" as="geometry" />
        </mxCell>
        <mxCell id="aS7JHVyA482OQ9VyYVJ9-55" value="getInformation(userid)" style="html=1;verticalAlign=bottom;endArrow=block;edgeStyle=elbowEdgeStyle;elbow=vertical;curved=0;rounded=0;" edge="1" parent="1" source="aS7JHVyA482OQ9VyYVJ9-53" target="aS7JHVyA482OQ9VyYVJ9-54">
          <mxGeometry relative="1" as="geometry">
            <mxPoint x="380" y="660" as="sourcePoint" />
            <Array as="points">
              <mxPoint x="365" y="650" />
            </Array>
          </mxGeometry>
        </mxCell>
        <mxCell id="aS7JHVyA482OQ9VyYVJ9-57" value="Tabs and Informations" style="html=1;verticalAlign=bottom;endArrow=open;dashed=1;endSize=8;edgeStyle=elbowEdgeStyle;elbow=vertical;curved=0;rounded=0;" edge="1" parent="1" target="aS7JHVyA482OQ9VyYVJ9-56">
          <mxGeometry relative="1" as="geometry">
            <mxPoint x="150" y="680" as="targetPoint" />
            <Array as="points">
              <mxPoint x="195" y="680" />
            </Array>
            <mxPoint x="270" y="680" as="sourcePoint" />
          </mxGeometry>
        </mxCell>
        <mxCell id="aS7JHVyA482OQ9VyYVJ9-58" value="Information" style="html=1;verticalAlign=bottom;endArrow=open;dashed=1;endSize=8;edgeStyle=elbowEdgeStyle;elbow=vertical;curved=0;rounded=0;" edge="1" parent="1">
          <mxGeometry relative="1" as="geometry">
            <mxPoint x="280" y="670" as="targetPoint" />
            <Array as="points">
              <mxPoint x="375" y="670" />
            </Array>
            <mxPoint x="450" y="670" as="sourcePoint" />
          </mxGeometry>
        </mxCell>
        <mxCell id="aS7JHVyA482OQ9VyYVJ9-59" value="opt" style="shape=umlFrame;whiteSpace=wrap;html=1;pointerEvents=0;width=30;height=20;" vertex="1" parent="1">
          <mxGeometry x="10" y="750" width="460" height="50" as="geometry" />
        </mxCell>
        <mxCell id="aS7JHVyA482OQ9VyYVJ9-60" value="updateInformations" style="html=1;verticalAlign=bottom;endArrow=block;edgeStyle=elbowEdgeStyle;elbow=vertical;curved=0;rounded=0;" edge="1" parent="1" source="aS7JHVyA482OQ9VyYVJ9-56">
          <mxGeometry width="80" relative="1" as="geometry">
            <mxPoint x="150" y="770" as="sourcePoint" />
            <mxPoint x="270" y="770" as="targetPoint" />
            <Array as="points">
              <mxPoint x="240" y="770" />
            </Array>
          </mxGeometry>
        </mxCell>
        <mxCell id="aS7JHVyA482OQ9VyYVJ9-61" value="message" style="html=1;verticalAlign=bottom;endArrow=open;dashed=1;endSize=8;edgeStyle=elbowEdgeStyle;elbow=vertical;curved=0;rounded=0;" edge="1" parent="1" target="aS7JHVyA482OQ9VyYVJ9-56">
          <mxGeometry relative="1" as="geometry">
            <mxPoint x="150" y="790" as="targetPoint" />
            <Array as="points">
              <mxPoint x="185" y="790" />
            </Array>
            <mxPoint x="270" y="790" as="sourcePoint" />
          </mxGeometry>
        </mxCell>
        <mxCell id="aS7JHVyA482OQ9VyYVJ9-62" value="setUser(userid)" style="html=1;verticalAlign=bottom;endArrow=block;edgeStyle=elbowEdgeStyle;elbow=vertical;curved=0;rounded=0;" edge="1" parent="1">
          <mxGeometry width="80" relative="1" as="geometry">
            <mxPoint x="280" y="780" as="sourcePoint" />
            <mxPoint x="450" y="780" as="targetPoint" />
          </mxGeometry>
        </mxCell>
        <mxCell id="aS7JHVyA482OQ9VyYVJ9-63" value="login(userid)" style="html=1;verticalAlign=bottom;endArrow=block;edgeStyle=elbowEdgeStyle;elbow=vertical;curved=0;rounded=0;" edge="1" parent="1" source="aS7JHVyA482OQ9VyYVJ9-56">
          <mxGeometry x="-0.0006" width="80" relative="1" as="geometry">
            <mxPoint x="190" y="640" as="sourcePoint" />
            <mxPoint x="270" y="640" as="targetPoint" />
            <mxPoint as="offset" />
          </mxGeometry>
        </mxCell>
        <mxCell id="aS7JHVyA482OQ9VyYVJ9-68" value="opt" style="shape=umlFrame;whiteSpace=wrap;html=1;pointerEvents=0;width=30;height=15;" vertex="1" parent="1">
          <mxGeometry x="10" y="690" width="130" height="40" as="geometry" />
        </mxCell>
        <mxCell id="aS7JHVyA482OQ9VyYVJ9-69" value="chooseTab" style="html=1;align=left;spacingLeft=2;endArrow=block;rounded=0;edgeStyle=orthogonalEdgeStyle;curved=0;rounded=0;" edge="1" parent="1" target="aS7JHVyA482OQ9VyYVJ9-56" source="aS7JHVyA482OQ9VyYVJ9-56">
          <mxGeometry x="0.1111" relative="1" as="geometry">
            <mxPoint x="150" y="690" as="sourcePoint" />
            <Array as="points">
              <mxPoint x="90" y="700" />
              <mxPoint x="90" y="720" />
            </Array>
            <mxPoint x="155" y="720" as="targetPoint" />
            <mxPoint as="offset" />
          </mxGeometry>
        </mxCell>
        <mxCell id="aS7JHVyA482OQ9VyYVJ9-70" value="alt" style="shape=umlFrame;whiteSpace=wrap;html=1;pointerEvents=0;width=30;height=15;" vertex="1" parent="1">
          <mxGeometry x="10" y="840" width="460" height="50" as="geometry" />
        </mxCell>
        <mxCell id="aS7JHVyA482OQ9VyYVJ9-71" value="getContents" style="html=1;verticalAlign=bottom;endArrow=block;edgeStyle=elbowEdgeStyle;elbow=vertical;curved=0;rounded=0;" edge="1" parent="1" target="aS7JHVyA482OQ9VyYVJ9-53" source="aS7JHVyA482OQ9VyYVJ9-56">
          <mxGeometry width="80" relative="1" as="geometry">
            <mxPoint x="150" y="890" as="sourcePoint" />
            <mxPoint x="230" y="890" as="targetPoint" />
            <Array as="points">
              <mxPoint x="220" y="820" />
            </Array>
          </mxGeometry>
        </mxCell>
        <mxCell id="aS7JHVyA482OQ9VyYVJ9-72" value="getContentsbyWriten" style="html=1;verticalAlign=bottom;endArrow=block;edgeStyle=elbowEdgeStyle;elbow=vertical;curved=0;rounded=0;" edge="1" parent="1">
          <mxGeometry width="80" relative="1" as="geometry">
            <mxPoint x="280" y="860" as="sourcePoint" />
            <mxPoint x="450" y="860" as="targetPoint" />
          </mxGeometry>
        </mxCell>
        <mxCell id="aS7JHVyA482OQ9VyYVJ9-73" value="getContentsbyCommented" style="html=1;verticalAlign=bottom;endArrow=block;edgeStyle=elbowEdgeStyle;elbow=vertical;curved=0;rounded=0;" edge="1" parent="1">
          <mxGeometry width="80" relative="1" as="geometry">
            <mxPoint x="280" y="910" as="sourcePoint" />
            <mxPoint x="450" y="910" as="targetPoint" />
          </mxGeometry>
        </mxCell>
        <mxCell id="aS7JHVyA482OQ9VyYVJ9-74" value="getContentsbyLeftImpression" style="html=1;verticalAlign=bottom;endArrow=block;edgeStyle=elbowEdgeStyle;elbow=vertical;curved=0;rounded=0;" edge="1" parent="1">
          <mxGeometry width="80" relative="1" as="geometry">
            <mxPoint x="280" y="950.35" as="sourcePoint" />
            <mxPoint x="450" y="950.35" as="targetPoint" />
          </mxGeometry>
        </mxCell>
        <mxCell id="aS7JHVyA482OQ9VyYVJ9-75" value="ContentList" style="html=1;verticalAlign=bottom;endArrow=open;dashed=1;endSize=8;edgeStyle=elbowEdgeStyle;elbow=vertical;curved=0;rounded=0;" edge="1" parent="1">
          <mxGeometry relative="1" as="geometry">
            <mxPoint x="450" y="879.7037037037037" as="sourcePoint" />
            <mxPoint x="280" y="880" as="targetPoint" />
          </mxGeometry>
        </mxCell>
        <mxCell id="aS7JHVyA482OQ9VyYVJ9-76" value="ContentList" style="html=1;verticalAlign=bottom;endArrow=open;dashed=1;endSize=8;edgeStyle=elbowEdgeStyle;elbow=vertical;curved=0;rounded=0;" edge="1" parent="1">
          <mxGeometry relative="1" as="geometry">
            <mxPoint x="450" y="930.28" as="sourcePoint" />
            <mxPoint x="280" y="930.28" as="targetPoint" />
          </mxGeometry>
        </mxCell>
        <mxCell id="aS7JHVyA482OQ9VyYVJ9-77" value="ContentList" style="html=1;verticalAlign=bottom;endArrow=open;dashed=1;endSize=8;edgeStyle=elbowEdgeStyle;elbow=vertical;curved=0;rounded=0;" edge="1" parent="1">
          <mxGeometry relative="1" as="geometry">
            <mxPoint x="450" y="970" as="sourcePoint" />
            <mxPoint x="280" y="970" as="targetPoint" />
          </mxGeometry>
        </mxCell>
        <mxCell id="aS7JHVyA482OQ9VyYVJ9-78" value="userType==editor" style="text;html=1;strokeColor=none;fillColor=none;align=center;verticalAlign=middle;whiteSpace=wrap;rounded=0;" vertex="1" parent="1">
          <mxGeometry x="80" y="840" width="60" height="30" as="geometry" />
        </mxCell>
        <mxCell id="aS7JHVyA482OQ9VyYVJ9-79" value="ContentList" style="html=1;verticalAlign=bottom;endArrow=open;dashed=1;endSize=8;edgeStyle=elbowEdgeStyle;elbow=vertical;curved=0;rounded=0;" edge="1" parent="1" target="aS7JHVyA482OQ9VyYVJ9-56">
          <mxGeometry relative="1" as="geometry">
            <mxPoint x="270" y="980" as="sourcePoint" />
            <mxPoint x="150" y="980" as="targetPoint" />
          </mxGeometry>
        </mxCell>
        <mxCell id="aS7JHVyA482OQ9VyYVJ9-80" value="chooseContent(contentId)" style="html=1;verticalAlign=bottom;endArrow=block;edgeStyle=elbowEdgeStyle;elbow=vertical;curved=0;rounded=0;" edge="1" parent="1" source="aS7JHVyA482OQ9VyYVJ9-56">
          <mxGeometry width="80" relative="1" as="geometry">
            <mxPoint x="150" y="1010" as="sourcePoint" />
            <mxPoint x="270" y="1010.0740740740739" as="targetPoint" />
          </mxGeometry>
        </mxCell>
        <mxCell id="aS7JHVyA482OQ9VyYVJ9-81" value="" style="endArrow=none;dashed=1;html=1;rounded=0;" edge="1" parent="1" target="aS7JHVyA482OQ9VyYVJ9-56">
          <mxGeometry width="50" height="50" relative="1" as="geometry">
            <mxPoint x="55" y="800" as="sourcePoint" />
            <mxPoint x="55" y="100" as="targetPoint" />
          </mxGeometry>
        </mxCell>
        <mxCell id="aS7JHVyA482OQ9VyYVJ9-56" value="" style="html=1;points=[];perimeter=orthogonalPerimeter;outlineConnect=0;targetShapes=umlLifeline;portConstraint=eastwest;newEdgeStyle={&quot;edgeStyle&quot;:&quot;elbowEdgeStyle&quot;,&quot;elbow&quot;:&quot;vertical&quot;,&quot;curved&quot;:0,&quot;rounded&quot;:0};" vertex="1" parent="1">
          <mxGeometry x="50" y="620" width="10" height="430" as="geometry" />
        </mxCell>
        <mxCell id="aS7JHVyA482OQ9VyYVJ9-86" value="chooseContent(contentId)" style="html=1;verticalAlign=bottom;endArrow=block;edgeStyle=elbowEdgeStyle;elbow=vertical;curved=0;rounded=0;exitX=1.036;exitY=0.978;exitDx=0;exitDy=0;exitPerimeter=0;" edge="1" parent="1">
          <mxGeometry width="80" relative="1" as="geometry">
            <mxPoint x="280" y="1020.64" as="sourcePoint" />
            <mxPoint x="625" y="1020.64" as="targetPoint" />
          </mxGeometry>
        </mxCell>
        <mxCell id="aS7JHVyA482OQ9VyYVJ9-87" value="opt" style="shape=umlFrame;whiteSpace=wrap;html=1;pointerEvents=0;width=30;height=15;" vertex="1" parent="1">
          <mxGeometry x="100" y="550" width="550" height="60" as="geometry" />
        </mxCell>
        <mxCell id="aS7JHVyA482OQ9VyYVJ9-88" value="opt" style="shape=umlFrame;whiteSpace=wrap;html=1;pointerEvents=0;width=30;height=15;" vertex="1" parent="1">
          <mxGeometry x="10" y="990" width="640" height="60" as="geometry" />
        </mxCell>
      </root>
    </mxGraphModel>
  </diagram>
</mxfile>
